<svg width="393" height="341" viewBox="0 0 393 341" fill="none" xmlns="http://www.w3.org/2000/svg">
<path d="M219 18H1V162H219V18Z" fill="#F2F2F2"/>
<path d="M191.644 0.257263H0.692322V17.7961H191.644V0.257263Z" fill="#E6E6E6"/>
<path d="M215 41H6V154H215V41Z" fill="white"/>
<path d="M18.7871 11.8831C19.849 11.8831 20.7098 10.5842 20.7098 8.98187C20.7098 7.37954 19.849 6.0806 18.7871 6.0806C17.7252 6.0806 16.8644 7.37954 16.8644 8.98187C16.8644 10.5842 17.7252 11.8831 18.7871 11.8831Z" fill="white"/>
<path d="M26.0854 11.8831C27.1473 11.8831 28.0082 10.5842 28.0082 8.98187C28.0082 7.37954 27.1473 6.0806 26.0854 6.0806C25.0236 6.0806 24.1627 7.37954 24.1627 8.98187C24.1627 10.5842 25.0236 11.8831 26.0854 11.8831Z" fill="white"/>
<path d="M11.4698 11.8831C12.5317 11.8831 13.3926 10.5842 13.3926 8.98187C13.3926 7.37954 12.5317 6.0806 11.4698 6.0806C10.408 6.0806 9.54712 7.37954 9.54712 8.98187C9.54712 10.5842 10.408 11.8831 11.4698 11.8831Z" fill="white"/>
<path d="M173.098 74.2123H52.6991V80.9275H173.098V74.2123Z" fill="#F2F2F2"/>
<path d="M95.627 91.0001H52.6991V97.7153H95.627V91.0001Z" fill="#F2F2F2"/>
<path d="M138.22 107.788H52.6991V114.503H138.22V107.788Z" fill="#F2F2F2"/>
<path d="M256 206H50V341H256V206Z" fill="#F2F2F2"/>
<path d="M256 206H50V221H256V206Z" fill="#E6E6E6"/>
<path d="M252 227H55V334H252V227Z" fill="white"/>
<path d="M70 216C71.1046 216 72 214.881 72 213.5C72 212.119 71.1046 211 70 211C68.8954 211 68 212.119 68 213.5C68 214.881 68.8954 216 70 216Z" fill="white"/>
<path d="M77.5 216C78.8807 216 80 214.881 80 213.5C80 212.119 78.8807 211 77.5 211C76.1193 211 75 212.119 75 213.5C75 214.881 76.1193 216 77.5 216Z" fill="white"/>
<path d="M62 216C63.1046 216 64 214.881 64 213.5C64 212.119 63.1046 211 62 211C60.8954 211 60 212.119 60 213.5C60 214.881 60.8954 216 62 216Z" fill="white"/>
<path d="M393 77H149V237H393V77Z" fill="#E6E6E6"/>
<path d="M393 77H149V95H393V77Z" fill="#4B85FF"/>
<path d="M387 101H155V228H387V101Z" fill="white"/>
<path d="M172.5 89C173.881 89 175 87.6569 175 86C175 84.3431 173.881 83 172.5 83C171.119 83 170 84.3431 170 86C170 87.6569 171.119 89 172.5 89Z" fill="white"/>
<path d="M181.5 89C182.881 89 184 87.6569 184 86C184 84.3431 182.881 83 181.5 83C180.119 83 179 84.3431 179 86C179 87.6569 180.119 89 181.5 89Z" fill="white"/>
<path d="M162.5 89C163.881 89 165 87.6569 165 86C165 84.3431 163.881 83 162.5 83C161.119 83 160 84.3431 160 86C160 87.6569 161.119 89 162.5 89Z" fill="white"/>
<path d="M360.145 133.752H181.909V143.693H360.145V133.752Z" fill="#E6E6E6"/>
<path d="M245.458 158.605H181.909V168.546H245.458V158.605Z" fill="#E6E6E6"/>
<path d="M308.511 183.457H181.909V193.398H308.511V183.457Z" fill="#E6E6E6"/>
<path d="M225.018 258.688H90.6213V266.184H225.018V258.688Z" fill="#F2F2F2"/>
<path d="M138.54 277.428H90.6213V284.923H138.54V277.428Z" fill="#F2F2F2"/>
<path d="M186.085 296.167H90.6213V303.663H186.085V296.167Z" fill="#F2F2F2"/>
<path d="M276.252 79L265 87L277 81.5688L276.252 79Z" fill="white"/>
<path d="M281.902 86.9502C283.581 86.2677 284.052 82.2823 282.953 78.0486C281.854 73.815 279.602 70.9362 277.923 71.6188C276.243 72.3013 275.773 76.2867 276.872 80.5204C277.971 84.754 280.223 87.6328 281.902 86.9502Z" fill="#3F3D56"/>
<path d="M281 74.4862L288.422 71L290 76.6861L282.817 83L281 74.4862Z" fill="#3F3D56"/>
</svg>
